<?xml version="1.0" standalone="no"?>
<!DOCTYPE svg PUBLIC "-//W3C//DTD SVG 20010904//EN"
 "http://www.w3.org/TR/2001/REC-SVG-20010904/DTD/svg10.dtd">
<svg version="1.0" xmlns="http://www.w3.org/2000/svg" viewBox="0 0 1440 230" preserveAspectRatio="xMidYMid meet">
<metadata> Created by potrace 1.16, written by Peter Selinger 2001-2019 </metadata>
<g>
<path d="M0,92L40,76.7C80,61,160,31,240,30.7C320,31,400,61,480,80.5C560,100,640,107,720,95.8C800,84,880,54,960,57.5C1040,61,1120,100,1200,95.8C1280,92,1360,46,1440,42.2C1520,38,1600,77,1680,88.2C1760,100,1840,84,1920,76.7C2000,69,2080,69,2160,76.7C2240,84,2320,100,2400,118.8C2480,138,2560,161,2640,164.8C2720,169,2800,153,2880,141.8C2960,130,3040,123,3120,134.2C3200,146,3280,176,3360,168.7C3440,161,3520,115,3600,115C3680,115,3760,161,3840,168.7C3920,176,4000,146,4080,138C4160,130,4240,146,4320,141.8C4400,138,4480,115,4560,103.5C4640,92,4720,92,4800,92C4880,92,4960,92,5040,99.7C5120,107,5200,123,5280,107.3C5360,92,5440,46,5520,53.7C5600,61,5680,123,5720,153.3L5760,184L5760,230L5720,230C5680,230,5600,230,5520,230C5440,230,5360,230,5280,230C5200,230,5120,230,5040,230C4960,230,4880,230,4800,230C4720,230,4640,230,4560,230C4480,230,4400,230,4320,230C4240,230,4160,230,4080,230C4000,230,3920,230,3840,230C3760,230,3680,230,3600,230C3520,230,3440,230,3360,230C3280,230,3200,230,3120,230C3040,230,2960,230,2880,230C2800,230,2720,230,2640,230C2560,230,2480,230,2400,230C2320,230,2240,230,2160,230C2080,230,2000,230,1920,230C1840,230,1760,230,1680,230C1600,230,1520,230,1440,230C1360,230,1280,230,1200,230C1120,230,1040,230,960,230C880,230,800,230,720,230C640,230,560,230,480,230C400,230,320,230,240,230C160,230,80,230,40,230L0,230Z"/>
</g>
</svg>
