<?xml version="1.0" standalone="no"?>
<!DOCTYPE svg PUBLIC "-//W3C//DTD SVG 20010904//EN"
 "http://www.w3.org/TR/2001/REC-SVG-20010904/DTD/svg10.dtd">
<svg version="1.0" xmlns="http://www.w3.org/2000/svg"
 width="604.000000pt" height="609.000000pt" viewBox="0 0 604.000000 609.000000"
 preserveAspectRatio="xMidYMid meet">
<metadata>
Created by potrace 1.16, written by Peter Selinger 2001-2019
</metadata>
<g transform="translate(0.000000,609.000000) scale(0.100000,-0.100000)"
fill="#C8C6C6" stroke="none">
<path d="M3437 5996 c-78 -40 -218 -118 -312 -173 -145 -86 -229 -136 -515
-306 l-35 -21 38 42 c42 48 46 77 16 116 -24 30 -51 33 -105 10 -36 -15 -166
-86 -224 -123 -15 -9 -8 2 18 28 23 24 45 54 48 67 8 33 -19 72 -57 82 l-32 8
71 57 c74 61 98 100 88 142 -10 40 -50 51 -111 30 -27 -10 -183 -97 -345 -195
-162 -98 -319 -189 -347 -204 -65 -32 -88 -64 -79 -109 l6 -33 -207 -140
c-293 -197 -597 -408 -648 -449 -74 -61 -88 -119 -38 -152 23 -15 29 -15 94 6
37 12 71 26 74 32 4 5 30 21 58 36 29 14 93 50 142 80 l90 54 -62 -58 c-81
-76 -91 -97 -65 -133 l21 -28 -22 -19 c-12 -11 -78 -58 -147 -103 -296 -197
-380 -266 -380 -314 0 -34 30 -66 68 -74 l32 -7 -68 -46 c-118 -82 -162 -126
-162 -164 0 -37 17 -55 62 -64 l31 -6 -90 -62 c-49 -34 -106 -80 -126 -102
-35 -39 -36 -42 -24 -73 26 -63 107 -57 246 18 l84 46 -32 -38 c-39 -49 -40
-85 -4 -114 31 -25 81 -22 136 6 l31 16 -37 -43 c-20 -23 -37 -46 -37 -50 0
-25 24 -62 50 -77 l30 -19 -75 -57 c-83 -64 -120 -114 -111 -150 7 -29 54 -50
97 -44 l32 5 -29 -20 c-16 -12 -55 -47 -87 -78 -66 -65 -69 -84 -15 -130 l30
-27 -69 -48 c-125 -87 -214 -156 -223 -175 -17 -30 -11 -65 15 -89 36 -34 86
-23 242 54 105 52 131 61 122 45 -13 -26 4 -75 33 -90 10 -5 16 -14 13 -18 -2
-5 -59 -42 -125 -82 -133 -81 -393 -253 -431 -284 -39 -32 -69 -76 -69 -101 0
-13 12 -32 27 -44 22 -17 35 -20 68 -15 48 8 235 86 286 120 l37 24 -11 -29
c-15 -41 1 -81 39 -100 l31 -15 -53 -52 c-58 -55 -70 -96 -39 -127 18 -18 78
-31 97 -21 7 3 0 -4 -17 -16 -55 -43 -133 -124 -140 -146 -4 -14 2 -30 18 -48
30 -35 84 -37 147 -5 l44 23 -32 -37 c-39 -44 -42 -83 -9 -114 33 -31 76 -28
176 15 80 34 297 146 434 223 l58 32 -6 -24 c-5 -18 0 -33 18 -53 l24 -28
-131 -80 c-72 -44 -163 -99 -202 -122 -197 -119 -404 -265 -453 -320 -37 -42
-39 -66 -10 -107 20 -28 26 -30 69 -26 31 3 93 27 175 66 l128 62 -6 -29 c-9
-42 24 -81 68 -81 38 0 162 51 280 114 99 53 297 165 348 195 20 13 37 18 37
13 0 -6 -5 -14 -10 -17 -6 -3 -10 -22 -10 -40 0 -48 34 -70 93 -61 l42 7 -53
-49 c-51 -47 -53 -52 -50 -93 3 -43 4 -44 44 -53 l41 -9 -72 -57 c-123 -98
-140 -137 -83 -185 29 -25 30 -28 14 -37 -10 -6 -26 -18 -35 -27 -9 -9 -34
-25 -55 -36 -21 -11 -55 -35 -76 -53 -21 -17 -43 -32 -50 -32 -6 0 -38 -26
-71 -57 -58 -55 -60 -58 -57 -102 l3 -46 60 0 c73 0 135 28 377 168 89 51 178
101 195 111 l33 16 -17 -34 c-14 -29 -14 -39 -3 -66 19 -46 41 -54 105 -35 66
19 243 100 267 122 10 9 18 11 18 5 0 -6 -4 -14 -10 -17 -18 -11 -11 -60 11
-84 18 -20 29 -23 68 -19 46 5 186 67 288 127 l52 31 -20 -35 c-36 -61 5 -113
81 -101 22 3 40 4 40 2 0 -2 -22 -18 -49 -36 -65 -41 -121 -104 -121 -134 0
-33 55 -79 84 -70 11 3 90 41 174 84 146 75 152 77 123 44 -45 -51 -40 -104
12 -131 15 -8 3 -19 -75 -75 -146 -103 -197 -161 -181 -205 11 -33 36 -53 64
-53 42 0 337 155 529 279 l25 16 -20 -27 c-11 -15 -27 -30 -36 -33 -18 -6 -39
-46 -39 -73 0 -32 29 -62 60 -62 74 0 234 90 1115 630 61 37 192 114 293 170
192 109 207 123 181 172 -15 29 -28 38 -58 38 -19 0 -3 15 71 65 112 77 208
165 208 193 0 11 -10 31 -21 46 -26 33 -31 28 111 112 52 32 149 92 215 134
66 42 160 100 208 130 101 63 233 160 295 217 31 30 42 47 42 70 0 34 -27 63
-58 63 -21 0 -21 1 -4 17 10 10 43 35 73 55 29 21 75 57 102 81 39 36 47 50
47 78 0 91 -62 91 -243 0 -119 -60 -120 -60 -84 -25 20 20 37 40 37 44 0 5 2
15 6 23 3 8 -7 28 -21 46 -32 37 -61 39 -123 11 l-42 -19 29 37 c44 55 48 85
17 116 -31 32 -51 32 -123 1 -32 -14 -49 -18 -38 -10 61 47 85 78 85 109 0 46
-24 74 -67 78 l-36 3 72 54 c69 51 111 100 111 129 0 7 -12 24 -26 39 -22 22
-31 24 -65 19 -21 -3 -63 -17 -93 -30 l-54 -24 20 34 c26 44 20 73 -19 100
l-32 21 61 44 c34 24 88 62 120 84 86 59 148 123 148 152 0 35 -42 73 -82 73
-18 0 -64 -14 -101 -30 -38 -16 -67 -26 -65 -22 30 60 31 64 22 80 -6 9 -25
27 -43 39 l-31 21 61 37 c33 21 71 47 85 59 13 11 38 32 56 45 38 28 88 88 88
107 0 7 -12 26 -26 43 -27 33 -54 38 -98 21 l-26 -9 30 41 c17 22 30 52 30 65
0 35 -34 63 -76 63 l-37 0 52 54 c28 30 51 63 51 74 0 26 -36 70 -61 74 -14 2
8 21 83 72 115 78 228 180 228 206 0 10 -10 30 -22 45 -34 44 -95 33 -249 -44
-147 -75 -376 -202 -437 -242 -34 -23 -41 -25 -32 -9 17 31 12 85 -10 105 -15
14 -31 17 -69 13 -49 -5 -50 -5 -36 16 20 28 19 91 -2 111 -9 10 -12 20 -7 23
6 4 86 55 180 113 447 281 554 362 554 423 0 55 -18 69 -83 64 -45 -4 -87 -20
-199 -76 -79 -39 -183 -95 -233 -125 -164 -96 -254 -147 -265 -147 -6 0 -5 9
2 25 17 37 -16 78 -67 85 l-38 5 46 38 c78 64 97 124 52 167 -18 17 -31 21
-53 17 -26 -5 -23 0 34 55 71 68 81 87 63 120 -17 33 -28 38 -81 38 -37 0 -67
-11 -152 -55 -58 -30 -108 -55 -111 -55 -3 0 -1 9 5 19 5 11 10 34 10 51 0 27
-6 33 -41 48 l-41 18 69 46 c95 63 192 145 205 174 9 20 7 29 -16 59 -18 23
-35 35 -51 35 -25 0 -162 -58 -251 -106 -119 -65 -373 -210 -409 -234 -65 -43
-67 -43 -40 -4 14 20 25 44 25 54 0 20 -38 57 -65 62 -15 3 7 20 80 65 166
102 351 235 374 268 27 40 28 91 2 105 -42 22 -92 11 -205 -46 -61 -31 -118
-61 -126 -67 -8 -7 0 5 18 26 38 44 40 64 10 102 -19 24 -26 27 -69 23 -29 -3
-86 -24 -151 -56 -86 -42 -479 -263 -598 -335 l-34 -21 17 24 c30 44 19 93
-27 118 -18 9 -18 10 5 22 48 26 225 145 279 188 108 88 130 129 94 180 -29
41 -79 30 -237 -52z"/>
</g>
</svg>
