<?xml version="1.0" standalone="no"?>
<!DOCTYPE svg PUBLIC "-//W3C//DTD SVG 20010904//EN"
 "http://www.w3.org/TR/2001/REC-SVG-20010904/DTD/svg10.dtd">
<svg version="1.0" xmlns="http://www.w3.org/2000/svg"
 width="2311.000000pt" height="675.000000pt" viewBox="0 0 2311.000000 675.000000"
 preserveAspectRatio="xMidYMid meet">
<metadata>
Created by potrace 1.16, written by Peter Selinger 2001-2019
</metadata>
<g transform="translate(0.000000,675.000000) scale(0.100000,-0.100000)"
fill="#C8C6C6" stroke="none">
<path d="M2910 6465 l-9 -24 -428 -3 c-235 -2 -436 -7 -445 -12 -20 -9 -23
-38 -8 -66 14 -25 58 -36 220 -51 132 -13 134 -13 80 -22 -62 -10 -90 -30 -90
-62 l0 -23 -256 -3 c-255 -4 -256 -4 -275 -28 -26 -31 -24 -47 7 -76 l27 -25
-94 -1 c-113 -2 -148 -8 -163 -32 -8 -13 -7 -24 6 -47 9 -17 16 -30 15 -31 -1
0 -50 -4 -110 -8 -89 -6 -110 -11 -122 -27 -34 -45 -2 -81 85 -94 36 -6 78
-13 95 -16 l29 -7 -34 -16 c-60 -28 -51 -79 20 -109 l34 -14 -32 -14 c-39 -16
-49 -38 -35 -75 12 -32 15 -31 -107 -44 -93 -10 -129 -53 -75 -89 14 -9 25
-20 25 -25 0 -4 -30 -11 -66 -14 -37 -4 -73 -12 -80 -18 -17 -14 -18 -65 -2
-75 23 -14 -33 -22 -163 -23 -83 -1 -129 -5 -137 -13 -16 -16 -15 -73 1 -87
11 -9 224 -51 260 -51 5 0 3 -8 -6 -18 -10 -10 -17 -34 -17 -54 l0 -35 -297 1
-298 1 -3 -36 c-5 -60 17 -71 196 -100 62 -9 72 -13 66 -28 -9 -18 -10 -68 -3
-90 3 -9 -11 -17 -46 -25 -28 -7 -56 -16 -63 -20 -20 -12 -14 -63 10 -80 26
-18 19 -22 -64 -31 -32 -4 -67 -14 -80 -25 -20 -15 -21 -21 -10 -44 6 -14 23
-31 37 -36 14 -6 37 -15 53 -22 l27 -12 -28 -4 c-55 -7 -63 -90 -10 -110 36
-14 113 -27 283 -47 211 -24 202 -22 195 -59 -4 -17 -12 -36 -19 -42 -8 -9
-97 -9 -341 -2 -387 12 -415 9 -415 -47 0 -46 24 -61 146 -86 87 -19 142 -39
106 -39 -7 0 -12 -15 -12 -36 0 -32 4 -37 42 -54 45 -19 312 -60 463 -70 65
-4 84 -8 70 -15 -11 -5 -37 -22 -58 -39 -35 -28 -38 -33 -32 -67 l6 -36 -131
-6 c-142 -7 -183 -19 -188 -55 -5 -31 13 -50 60 -64 38 -11 78 -48 78 -73 0
-9 -42 -14 -157 -17 -134 -4 -165 -8 -205 -26 -26 -12 -57 -22 -70 -22 -38 0
-70 -28 -66 -58 4 -37 51 -58 185 -84 59 -11 110 -22 112 -24 2 -2 -3 -12 -12
-22 -21 -23 -22 -71 -2 -78 28 -11 15 -24 -22 -24 -47 0 -107 -29 -111 -54 -2
-10 5 -31 16 -46 12 -15 18 -30 15 -34 -4 -3 -32 -6 -62 -6 -65 0 -101 -19
-101 -55 0 -32 24 -53 76 -66 49 -13 59 -29 16 -29 -15 0 -33 -5 -40 -12 -16
-16 -15 -73 1 -87 19 -16 135 -38 340 -65 98 -13 181 -26 183 -29 3 -3 1 -14
-5 -25 -6 -12 -11 -30 -11 -42 0 -17 -4 -19 -26 -14 -14 4 -187 7 -385 8 -322
1 -360 -1 -375 -16 -11 -11 -15 -24 -10 -43 9 -35 64 -59 189 -81 53 -9 97
-20 97 -24 0 -4 -7 -13 -15 -20 -8 -7 -15 -23 -15 -37 0 -49 126 -78 440 -103
174 -14 185 -16 148 -36 -23 -12 -28 -22 -28 -50 0 -31 4 -37 30 -47 16 -6 30
-14 30 -18 0 -3 -24 -9 -52 -12 -73 -9 -90 -36 -63 -99 6 -16 1 -18 -36 -18
-112 0 -159 -25 -159 -85 l0 -35 -142 0 c-194 -1 -237 -12 -238 -62 0 -44 82
-63 401 -94 l186 -18 -41 -20 c-34 -17 -41 -26 -41 -50 0 -41 38 -61 155 -81
139 -23 136 -22 110 -50 -13 -14 -20 -33 -18 -47 4 -30 43 -43 211 -71 118
-19 125 -22 95 -31 -27 -9 -34 -17 -36 -44 -3 -27 2 -35 27 -50 l30 -17 -76
-12 c-85 -13 -120 -36 -108 -72 3 -11 15 -26 25 -31 17 -9 252 -50 288 -50 6
0 12 -5 12 -11 0 -5 -4 -7 -10 -4 -15 9 -87 -14 -94 -30 -3 -8 -3 -28 0 -43
l6 -28 -132 -11 c-72 -7 -138 -17 -146 -24 -17 -14 -18 -63 -2 -77 16 -13 128
-29 293 -42 197 -15 239 -21 224 -31 -8 -5 -40 -9 -71 -9 -47 0 -59 -4 -68
-21 -17 -30 -8 -62 20 -76 43 -20 229 -37 730 -68 135 -8 308 -19 385 -25 77
-5 184 -13 237 -16 l97 -7 6 26 c4 14 2 34 -4 45 -6 12 -7 23 -3 26 5 3 66 8
136 12 139 8 156 15 156 64 0 29 1 29 48 25 26 -3 76 -7 112 -9 36 -3 73 -8
83 -11 31 -13 6 -25 -51 -26 -82 0 -126 -18 -130 -50 -3 -22 3 -29 35 -42 53
-21 212 -52 450 -87 251 -37 271 -38 298 -5 l20 24 315 -34 c292 -32 534 -44
574 -29 21 8 21 58 0 75 -9 8 -96 31 -193 51 l-176 38 115 -6 c63 -3 135 -10
158 -16 25 -6 80 -8 127 -5 80 6 83 5 93 -18 25 -55 42 -58 310 -57 219 0 241
-1 195 -12 -88 -22 -120 -54 -93 -96 6 -10 33 -17 82 -20 87 -7 512 4 855 20
272 14 416 10 453 -11 29 -16 312 -16 700 1 450 19 616 23 685 15 54 -6 64
-10 45 -16 -14 -4 -38 -7 -55 -8 -97 -3 -150 -50 -107 -94 19 -19 37 -22 150
-28 70 -4 235 -8 367 -8 l240 -1 25 29 25 29 324 12 c439 15 527 23 566 52 27
20 41 23 130 23 68 -1 108 -5 125 -15 18 -10 55 -14 138 -13 75 2 112 -1 112
-9 0 -11 4 -11 205 12 128 14 598 23 615 11 20 -14 17 -15 -75 -37 -77 -18
-80 -20 -83 -49 -5 -61 -34 -58 557 -59 l541 -1 31 33 c27 28 36 32 83 32 30
0 68 3 85 6 27 6 31 4 31 -14 0 -12 10 -28 22 -36 19 -14 61 -16 273 -15 137
1 299 4 360 8 106 6 110 7 123 33 16 33 45 38 427 74 338 31 418 29 715 -19
118 -20 294 -47 390 -62 96 -14 246 -37 332 -51 86 -15 164 -24 174 -20 13 5
15 15 11 46 l-5 40 118 -6 c102 -6 123 -5 145 10 16 11 25 26 25 43 l0 26 68
-7 c78 -8 307 -41 402 -58 l65 -12 -42 -6 c-23 -3 -48 -12 -57 -19 -20 -17
-21 -55 -2 -70 27 -22 430 -61 636 -61 80 0 91 2 110 23 l21 22 397 2 c218 1
411 5 429 8 36 6 63 29 63 51 0 25 -58 51 -138 63 -74 11 -105 21 -66 21 10 0
189 7 398 15 l378 15 46 -21 c45 -21 57 -21 332 -16 157 3 447 13 645 21 338
14 480 13 470 -4 -2 -4 -34 -10 -71 -13 -82 -8 -116 -28 -112 -65 6 -48 30
-52 403 -65 l345 -11 34 33 34 33 284 9 c353 11 542 25 576 41 38 18 38 67 1
85 -14 7 -102 18 -195 25 -150 11 -163 13 -114 20 68 10 98 30 102 65 3 32
-21 28 348 52 132 9 170 15 190 30 35 25 36 48 5 81 l-27 28 89 6 c157 12 194
32 154 87 l-20 27 37 6 c20 3 62 8 92 11 90 10 110 16 121 36 25 48 -30 88
-123 90 -29 1 -64 4 -78 9 l-25 8 33 12 c67 25 48 99 -30 116 l-43 9 40 21
c46 24 58 63 29 95 -17 19 -15 19 54 19 39 0 74 5 77 10 3 6 14 10 24 10 10 0
26 9 36 20 23 25 14 60 -21 81 -26 16 -26 16 50 28 42 7 83 19 91 27 17 17 20
60 5 69 -26 16 -4 25 61 25 78 0 205 17 232 31 10 6 17 21 17 38 0 52 -48 73
-195 86 -44 4 -84 9 -88 12 -5 3 -1 13 9 24 10 12 15 29 12 49 l-5 30 61 0
c162 1 507 21 529 31 31 14 41 47 22 75 -16 25 -27 28 -179 49 -60 8 -111 17
-113 19 -2 2 3 9 12 16 19 16 19 50 -1 78 -17 25 -16 26 51 37 80 13 104 78
40 112 -16 10 -12 12 30 18 90 11 120 27 123 62 4 38 -29 73 -69 73 -39 0 -44
16 -9 28 38 14 57 51 41 80 -17 31 -63 40 -310 62 -123 10 -226 21 -228 24
-12 11 9 75 25 80 9 2 161 7 337 11 362 7 422 14 431 51 14 55 -22 80 -137 95
-46 5 -98 12 -116 15 l-32 5 17 28 c13 23 14 34 5 53 -17 38 -100 49 -517 74
-104 6 -108 7 -78 20 54 22 40 84 -23 109 -16 6 -8 10 35 19 30 7 82 26 115
42 48 24 61 36 69 62 6 22 17 34 33 38 31 8 46 39 39 79 l-6 33 147 4 c197 6
254 30 225 94 -7 13 -18 24 -26 24 -8 0 -47 13 -88 29 -45 18 -110 34 -168 41
-52 6 -97 13 -99 16 -3 3 0 14 7 24 17 27 15 40 -9 66 l-21 22 56 12 c31 6 63
18 71 26 22 22 18 60 -7 84 l-22 20 40 1 c53 1 115 20 127 41 8 12 8 24 -1 42
-12 27 -33 39 -87 52 l-30 7 32 13 c66 28 61 82 -9 107 -49 18 -178 34 -348
43 -146 7 -143 6 -125 41 8 15 15 36 15 45 0 15 30 17 353 20 258 2 358 6 374
15 40 23 42 82 3 103 -13 7 -207 38 -247 40 -1 0 5 13 14 29 16 27 16 30 0 54
-13 20 -28 27 -64 32 -27 3 -70 13 -96 21 -33 10 -67 13 -106 8 -39 -4 -61 -3
-65 5 -8 12 -76 15 -76 4 0 -5 -42 -7 -92 -5 l-93 4 28 20 c16 12 27 29 27 43
0 29 -35 64 -64 66 -12 1 3 5 32 9 82 12 116 57 76 101 -15 17 -15 18 7 23 13
3 50 7 82 9 32 2 63 9 68 14 6 6 14 31 16 56 l5 44 147 7 c190 9 205 13 209
55 6 62 -3 66 -253 81 -256 15 -306 21 -274 32 38 13 54 54 34 84 -8 13 -21
24 -28 24 -7 0 -18 5 -25 12 -7 7 -50 13 -108 14 -53 2 -98 5 -101 7 -2 3 3
19 12 36 33 65 -7 87 -192 103 l-123 11 30 19 c38 23 40 61 5 84 -14 9 -23 19
-20 22 3 3 33 9 66 13 77 9 109 35 91 74 -16 35 -49 45 -167 52 -93 6 -174 21
-120 22 11 1 31 8 44 17 20 15 23 22 17 60 l-6 44 103 1 c56 0 118 5 137 12
30 10 35 17 38 49 2 29 -1 39 -18 48 -23 12 -246 29 -405 30 l-100 1 64 17
c35 9 69 24 74 33 13 21 1 65 -20 74 -46 19 -178 29 -403 29 -176 1 -263 5
-307 15 -53 13 -70 13 -115 2 -40 -11 -109 -12 -315 -7 l-263 8 -9 -24 c-5
-13 -5 -33 0 -45 11 -30 -2 -33 -144 -32 -118 0 -121 1 -82 15 59 22 72 57 36
93 -19 19 -18 20 54 36 88 19 121 41 111 73 -4 13 -19 30 -32 39 -22 14 -53
14 -327 4 -318 -13 -396 -22 -410 -46 -4 -8 -16 -19 -27 -25 -20 -10 -610 -70
-690 -70 -55 1 -36 14 34 25 67 9 95 24 103 53 16 66 -25 73 -342 61 -373 -14
-412 -19 -425 -55 -6 -14 -18 -24 -28 -24 -11 0 -109 -9 -218 -20 -422 -41
-553 -50 -597 -40 -23 5 -118 19 -212 31 -189 23 -655 96 -839 130 -135 26
-149 22 -154 -36 l-3 -37 -77 8 c-147 15 -212 0 -212 -51 0 -13 -3 -26 -7 -28
-7 -5 -225 23 -433 54 -81 12 -83 13 -47 21 56 12 77 26 77 52 0 13 -9 31 -19
40 -32 29 -95 36 -592 61 l-146 7 -7 -25 -6 -25 -428 -4 c-235 -2 -435 -7
-444 -12 -23 -11 -32 -41 -18 -65 11 -22 54 -36 145 -48 l60 -8 -55 -6 c-30
-4 -209 -10 -397 -15 -258 -5 -352 -4 -380 5 -33 10 -221 30 -308 33 -16 0
-61 -4 -100 -10 -38 -6 -192 -16 -341 -22 -210 -10 -280 -10 -308 0 -20 6 -36
15 -36 19 0 5 23 11 51 15 63 9 126 33 133 52 8 20 -3 43 -25 54 -29 16 -383
22 -757 13 -320 -7 -345 -9 -357 -27 -8 -10 -16 -22 -17 -26 -2 -4 -44 -11
-93 -15 l-90 -7 -10 34 c-15 50 -43 53 -353 41 -152 -6 -271 -7 -276 -2 -14
12 -86 11 -86 -1 0 -5 -6 -10 -14 -10 -8 0 -24 -13 -35 -29 -17 -24 -31 -30
-93 -40 -106 -16 -606 -61 -687 -61 -68 0 -340 35 -350 45 -2 3 1 11 7 17 16
16 15 53 0 66 -8 6 -154 12 -373 15 -198 4 -382 11 -410 17 -98 21 -129 22
-149 7 -17 -12 -18 -18 -8 -47 l12 -33 -53 8 c-28 5 -86 9 -128 9 -81 1 -105
-9 -111 -47 -3 -20 -9 -22 -83 -24 l-80 -3 28 21 c33 25 35 62 5 83 -17 12
-50 16 -145 16 -110 0 -123 2 -136 20 -20 28 -54 38 -173 50 -59 6 -111 13
-115 16 -4 2 -110 7 -236 10 l-228 5 -21 -26 -21 -27 -335 1 c-361 2 -508 -5
-535 -24 -14 -11 -15 -16 -4 -44 17 -39 41 -46 226 -63 l140 -14 -100 -13
c-96 -12 -109 -12 -310 18 -266 39 -735 117 -756 126 -9 3 -26 -2 -39 -13 -21
-17 -22 -22 -12 -51 l11 -32 -118 7 c-151 9 -168 5 -177 -42 l-7 -37 -61 7
c-179 18 -446 60 -434 67 7 5 22 9 34 9 53 0 71 75 24 97 -42 19 -452 53 -648
53 -78 0 -83 -1 -92 -25z"/>
</g>
</svg>
