<?xml version="1.0" standalone="no"?>
<!DOCTYPE svg PUBLIC "-//W3C//DTD SVG 20010904//EN"
 "http://www.w3.org/TR/2001/REC-SVG-20010904/DTD/svg10.dtd">
<svg version="1.0" xmlns="http://www.w3.org/2000/svg"
 width="3761.000000pt" height="1269.000000pt" viewBox="0 0 3761.000000 1269.000000"
 preserveAspectRatio="xMidYMid meet">
<metadata>
Created by potrace 1.16, written by Peter Selinger 2001-2019
</metadata>
<g transform="translate(0.000000,1269.000000) scale(0.100000,-0.100000)"
fill="#4B6587" stroke="none">
<path d="M21524 12676 c-73 -32 -93 -104 -51 -186 19 -39 33 -50 97 -82 69
-34 304 -103 500 -148 l75 -17 -94 -7 c-89 -7 -97 -10 -128 -41 -29 -29 -33
-40 -33 -85 0 -44 -2 -51 -17 -46 -10 3 -50 12 -89 20 -94 20 -120 33 -143 72
-39 66 -47 68 -310 65 -180 -1 -260 2 -336 14 -55 9 -146 18 -202 18 l-102 2
-36 -35 c-20 -19 -43 -47 -50 -61 -13 -24 -21 -26 -197 -47 -101 -13 -239 -27
-308 -32 -138 -11 -184 -22 -217 -53 -27 -24 -47 -80 -39 -110 5 -22 2 -23
-107 -35 -62 -7 -141 -21 -177 -33 -73 -23 -22 -25 -690 31 -390 33 -478 41
-595 50 -71 6 -155 15 -186 20 -117 21 -175 8 -218 -46 -12 -15 -21 -37 -21
-49 0 -32 -43 -36 -345 -25 -730 25 -1029 32 -1332 29 -316 -4 -333 -5 -360
-25 -15 -11 -36 -37 -46 -56 -17 -34 -17 -40 -2 -90 32 -110 131 -137 628
-173 93 -7 113 -19 47 -29 -22 -3 -59 -9 -82 -12 -27 -4 -52 -17 -71 -36 -28
-27 -29 -33 -24 -84 4 -41 2 -56 -8 -60 -7 -3 -140 -1 -295 4 -219 7 -284 12
-290 22 -5 8 -12 37 -16 64 -5 38 -14 58 -39 83 -33 33 -33 33 -132 33 -101 0
-434 -25 -481 -36 -27 -7 -27 -7 -7 12 12 11 34 26 50 34 42 22 57 56 52 118
-3 41 -10 59 -30 80 l-27 26 160 32 c295 59 416 102 458 164 27 40 28 84 3
143 -28 65 -77 82 -209 73 -256 -18 -668 -61 -717 -76 -43 -13 -185 -22 -160
-11 11 5 29 10 41 10 34 1 111 59 125 93 17 41 14 114 -7 145 -28 44 -72 54
-217 50 -151 -4 -428 -34 -672 -72 -49 -7 -128 -19 -175 -24 -47 -6 -148 -20
-225 -32 -77 -11 -171 -24 -210 -30 -38 -5 -99 -13 -135 -18 -36 -5 -101 -14
-145 -20 -44 -6 -123 -18 -175 -26 -94 -14 -267 -38 -365 -50 -27 -3 -72 -10
-100 -15 -95 -18 -560 -71 -703 -81 -152 -9 -183 -18 -215 -60 -21 -29 -35
-117 -21 -128 5 -3 18 -19 28 -35 23 -37 20 -38 -119 -71 -196 -46 -240 -50
-418 -37 -203 16 -451 40 -540 52 -37 6 -90 10 -117 10 -27 0 -71 4 -97 9 -26
6 -133 19 -238 31 -104 12 -215 28 -246 36 -102 25 -150 12 -188 -49 -24 -39
-26 -76 -7 -129 l14 -38 -202 0 c-400 0 -476 -26 -461 -158 l7 -53 -64 6 c-35
3 -259 21 -498 40 -239 20 -478 40 -530 46 -145 16 -754 24 -800 10 -21 -6
-50 -25 -64 -42 -35 -41 -37 -132 -5 -173 l20 -26 -33 1 c-94 2 -138 15 -171
51 -32 35 -106 66 -127 53 -6 -3 -49 -8 -98 -10 -77 -4 -192 -19 -507 -70 -49
-8 -108 -16 -130 -19 -22 -3 -96 -14 -165 -25 -69 -11 -190 -29 -270 -41 -80
-12 -178 -28 -218 -36 -40 -8 -89 -14 -110 -15 -93 -1 -152 -53 -152 -134 l0
-43 -97 -17 c-54 -10 -125 -26 -158 -36 -33 -10 -73 -19 -88 -19 -29 0 -177
-30 -277 -56 -30 -7 -80 -18 -110 -24 -74 -13 -418 -85 -555 -116 -60 -13
-162 -36 -225 -50 -183 -42 -346 -88 -418 -120 -57 -25 -82 -63 -82 -123 0
-48 47 -109 94 -122 42 -12 243 -6 361 10 137 19 282 41 305 47 44 10 8 -11
-67 -40 -43 -16 -81 -38 -93 -53 -24 -30 -26 -86 -6 -134 l14 -34 -56 -12
c-32 -6 -86 -17 -122 -23 -36 -6 -121 -24 -190 -40 -69 -16 -224 -50 -345 -76
-232 -49 -379 -91 -433 -124 -93 -57 -94 -185 -3 -247 32 -22 32 -22 9 -28
-12 -3 -92 -21 -177 -40 -157 -35 -248 -69 -288 -107 -45 -42 -22 -162 36
-193 40 -20 39 -35 -1 -35 -18 0 -108 -20 -199 -43 -178 -46 -273 -90 -290
-135 -25 -65 -4 -134 48 -161 89 -45 143 -53 275 -41 68 6 137 13 153 16 29 6
29 5 -12 -25 -52 -38 -63 -58 -63 -116 0 -53 19 -95 52 -117 26 -17 113 -38
161 -38 l32 0 -47 -30 c-58 -37 -78 -65 -78 -112 0 -63 28 -118 69 -136 l36
-15 -79 -14 c-87 -15 -249 -63 -293 -86 -15 -9 -36 -18 -45 -21 -28 -8 -58
-67 -58 -111 0 -55 33 -100 95 -130 49 -23 49 -23 18 -24 -73 -2 -243 -67
-292 -112 -26 -23 -31 -35 -31 -74 0 -48 19 -95 53 -132 l20 -23 -29 0 c-16 0
-54 -7 -84 -15 -30 -8 -115 -26 -188 -40 -74 -14 -157 -34 -185 -45 -29 -10
-65 -21 -82 -25 -49 -10 -122 -69 -130 -105 -10 -44 11 -111 47 -155 l31 -37
211 5 c116 3 253 8 304 11 l93 6 -20 -26 c-29 -37 -27 -98 4 -151 14 -27 19
-43 12 -43 -25 -1 -156 -21 -257 -39 -58 -11 -170 -32 -250 -46 -484 -85 -745
-151 -803 -202 -70 -63 -45 -180 49 -228 36 -18 57 -20 259 -19 121 1 247 6
279 13 33 6 64 7 68 3 5 -5 2 -22 -7 -38 -8 -16 -15 -45 -15 -64 0 -42 33
-118 55 -126 8 -3 15 -9 15 -13 0 -12 -57 -41 -82 -41 -35 0 -119 -44 -153
-79 -26 -28 -30 -40 -29 -86 0 -63 16 -85 84 -120 l45 -23 -45 -11 c-164 -43
-275 -91 -305 -133 -20 -30 -19 -84 4 -134 23 -51 67 -73 172 -87 l77 -10 -31
-21 c-72 -50 -92 -126 -51 -197 33 -56 68 -69 210 -80 70 -5 134 -7 143 -4 9
2 75 9 146 15 72 6 195 17 275 25 80 7 174 17 210 20 36 3 83 10 105 15 22 5
68 11 102 14 l62 6 -11 -31 c-6 -16 -8 -56 -6 -89 l4 -58 -55 -10 c-122 -23
-345 -60 -526 -88 -55 -8 -126 -21 -158 -29 -32 -8 -71 -15 -85 -15 -32 0
-521 -101 -636 -131 -89 -23 -206 -78 -242 -114 -43 -43 -27 -137 33 -202 25
-27 37 -31 103 -36 86 -7 262 -3 397 8 l93 8 -6 -64 c-10 -124 52 -169 244
-177 111 -4 336 10 457 29 85 13 275 39 370 49 44 5 109 14 145 19 36 5 85 12
109 16 l43 6 -25 -31 c-29 -35 -43 -87 -32 -127 10 -40 78 -101 122 -109 l38
-7 -50 -12 c-71 -17 -138 -50 -153 -76 -51 -82 -47 -145 13 -197 l33 -30 -31
-5 c-61 -8 -222 -60 -246 -78 -13 -11 -34 -19 -47 -19 -42 0 -94 -74 -94 -134
0 -27 34 -96 53 -108 14 -9 -1 -14 -63 -23 -24 -3 -49 -10 -55 -14 -5 -5 -35
-11 -65 -14 -65 -6 -336 -63 -365 -76 -11 -5 -50 -18 -86 -30 -136 -41 -198
-102 -186 -178 13 -77 63 -113 168 -121 88 -6 371 14 544 39 186 27 341 47
445 59 47 6 92 12 100 15 8 3 -4 -12 -27 -34 -39 -37 -43 -44 -42 -88 0 -78
18 -114 68 -142 41 -23 50 -24 231 -22 103 1 221 6 261 11 41 5 84 10 97 10
22 0 22 -1 7 -16 -40 -40 -46 -58 -35 -115 23 -125 128 -149 490 -113 80 7
164 15 186 18 l42 3 -24 -34 c-66 -97 -20 -201 97 -221 l44 -8 -45 -7 c-43 -7
-182 -50 -225 -69 -53 -24 -89 -47 -102 -63 -28 -40 -7 -133 42 -182 31 -31
36 -33 107 -33 100 1 455 34 498 46 23 7 24 6 11 -10 -8 -9 -29 -23 -47 -31
-26 -11 -35 -22 -44 -57 -16 -59 -7 -115 25 -148 l26 -27 -58 -7 c-65 -7 -347
-83 -439 -117 -35 -13 -75 -38 -98 -61 -37 -37 -38 -40 -34 -93 6 -66 29 -102
82 -129 35 -17 48 -17 189 -7 84 7 195 18 247 26 52 8 149 21 215 30 66 9 144
20 173 26 79 16 202 26 202 17 0 -4 -14 -8 -30 -8 -58 0 -116 -45 -144 -111
-11 -27 -12 -45 -4 -82 8 -40 17 -52 51 -75 45 -30 56 -31 252 -12 183 17 464
53 585 75 41 8 167 28 280 45 113 17 309 49 435 70 201 34 432 71 710 115 44
7 121 18 170 25 50 7 110 19 134 26 25 8 68 14 96 14 29 0 75 4 102 10 115 21
390 50 428 45 35 -6 45 -3 72 22 18 15 37 41 43 56 13 36 13 107 0 107 -5 0
-10 5 -10 12 0 7 -12 25 -27 40 l-27 28 27 0 c31 0 345 79 437 110 143 48 174
78 168 161 l-3 52 75 -7 c41 -3 185 -18 320 -32 273 -30 342 -37 545 -53 77
-7 169 -16 205 -21 105 -15 256 -30 299 -30 54 0 95 35 110 96 l12 46 47 -6
c26 -3 290 -17 587 -31 297 -13 628 -30 735 -36 136 -8 263 -9 422 -3 220 9
227 10 252 33 36 34 51 94 37 143 -13 43 -70 94 -115 104 -17 3 -51 12 -76 20
-38 12 -167 26 -440 51 -83 7 -81 20 5 34 63 11 82 19 107 44 28 28 29 34 26
93 -4 60 -3 63 16 58 39 -10 450 -28 781 -35 326 -7 330 -7 370 -31 l39 -24
-54 -12 c-30 -7 -80 -20 -110 -29 -30 -9 -74 -22 -97 -29 -23 -6 -62 -26 -87
-44 -57 -41 -69 -91 -37 -164 32 -75 55 -82 241 -75 85 4 182 11 215 17 33 6
161 23 285 40 124 16 324 43 445 61 121 17 254 35 295 40 41 4 113 12 159 17
74 9 87 13 114 41 25 24 33 42 37 83 l5 52 102 17 c57 10 127 25 157 33 30 9
70 16 88 16 19 0 79 9 134 20 54 11 122 24 149 30 386 77 502 95 535 81 23 -9
21 -10 -18 -10 -92 -2 -155 -54 -167 -140 -8 -56 10 -92 64 -130 46 -33 372
-74 926 -116 110 -8 245 -20 300 -25 55 -6 156 -15 225 -20 468 -34 687 -51
765 -60 50 -5 156 -14 236 -20 81 -5 153 -12 160 -14 8 -3 75 -10 149 -16 188
-15 370 -39 393 -52 11 -5 38 -7 63 -3 57 8 106 70 102 127 -1 21 3 43 9 49 6
6 57 15 114 20 57 5 115 11 129 13 14 3 88 10 165 16 77 6 156 15 175 20 62
15 170 21 170 10 0 -5 -13 -10 -28 -10 -37 0 -121 -56 -134 -89 -5 -14 -8 -52
-6 -84 4 -47 10 -63 31 -85 l28 -27 147 1 c145 1 629 46 694 65 18 5 56 9 85
9 54 0 163 13 268 31 33 5 121 16 195 24 74 8 218 25 320 39 102 14 262 34
355 45 169 21 225 28 425 57 58 8 139 17 180 19 41 2 104 8 140 14 36 6 146
16 245 22 99 7 190 16 202 20 32 12 63 67 63 111 0 21 -11 57 -25 81 -13 25
-21 47 -18 51 4 3 20 6 37 6 l31 0 -3 -58 c-6 -97 38 -133 191 -158 112 -18
498 -59 702 -74 83 -6 222 -17 310 -25 88 -8 342 -28 565 -45 381 -28 587 -45
845 -71 447 -43 533 -54 582 -70 76 -25 155 12 182 83 13 35 0 112 -24 138
-18 20 -17 20 51 20 202 -1 549 -21 657 -39 67 -11 174 -27 237 -36 63 -9 138
-20 165 -25 28 -5 102 -17 165 -25 63 -9 169 -28 235 -42 153 -32 226 -39 254
-23 54 28 77 120 46 180 l-16 30 31 0 c31 0 33 -5 30 -53 -4 -72 60 -147 127
-147 19 0 44 -6 56 -14 12 -8 137 -33 277 -56 140 -23 293 -49 340 -56 47 -8
114 -19 150 -24 36 -6 81 -15 100 -19 19 -5 96 -17 170 -26 74 -10 155 -23
179 -31 25 -8 66 -14 92 -14 25 0 63 -7 82 -15 43 -18 116 -20 151 -4 24 11
65 64 79 102 7 19 42 18 190 -5 37 -5 79 -7 93 -4 13 4 33 2 43 -3 10 -6 90
-17 177 -25 155 -15 249 -37 301 -71 12 -8 29 -15 38 -15 8 0 15 -4 15 -10 0
-5 8 -10 18 -10 9 0 42 -13 73 -29 31 -15 72 -31 91 -35 20 -3 45 -15 58 -26
12 -10 43 -27 69 -36 79 -28 125 -48 151 -66 14 -9 45 -22 70 -28 25 -7 59
-23 77 -36 17 -13 35 -24 39 -24 20 0 395 -177 433 -204 110 -79 241 0 216
131 -3 18 -4 33 -2 33 2 0 91 -29 198 -65 296 -98 406 -116 447 -72 27 28 55
95 48 113 -7 19 -4 18 88 -20 45 -19 137 -58 206 -86 69 -29 163 -69 210 -90
121 -55 244 -108 325 -140 39 -15 113 -45 165 -67 142 -60 306 -123 320 -123
7 0 29 -9 49 -20 37 -21 107 -46 221 -82 188 -58 267 -51 305 28 17 36 20 97
5 124 -9 16 -7 17 23 9 17 -4 70 -22 117 -39 142 -52 252 -80 318 -83 l63 -2
50 52 c33 35 49 60 49 78 0 25 -27 85 -52 115 -23 27 -293 180 -319 180 -24 0
-49 10 -49 21 0 4 23 11 51 15 70 9 104 40 120 108 9 41 9 61 0 89 -12 36 -74
97 -97 97 -6 0 -17 6 -23 14 -9 11 -2 12 40 8 30 -3 61 0 77 8 15 7 34 16 42
19 26 13 50 74 50 127 0 47 -3 55 -38 85 -20 19 -48 42 -62 52 -20 14 -21 17
-5 12 11 -4 43 -9 71 -12 108 -11 164 36 164 138 0 34 -6 63 -16 77 -21 30
-13 37 23 19 15 -8 55 -23 88 -32 33 -10 75 -24 94 -33 24 -10 56 -13 108 -10
98 7 124 30 131 114 6 69 -13 112 -67 147 -20 13 -66 43 -103 67 -38 24 -68
44 -68 44 0 1 21 1 48 1 91 0 145 70 124 163 -12 51 -17 51 125 -9 51 -21 98
-39 104 -39 5 0 31 -9 57 -19 82 -34 240 -81 311 -93 99 -17 146 -2 172 55 10
23 19 61 19 85 0 79 -36 122 -167 197 -46 25 -85 50 -88 55 -2 4 16 10 41 13
24 2 54 13 64 22 24 22 40 75 40 134 0 34 3 41 13 33 13 -11 158 -64 239 -87
25 -7 57 -19 69 -26 41 -21 170 -49 231 -49 63 0 111 18 127 49 6 10 13 48 17
85 l7 66 -43 40 -43 40 72 0 c68 0 75 2 101 30 18 19 33 51 41 85 11 49 10 56
-10 91 -12 20 -20 38 -19 40 2 1 43 -3 91 -10 81 -12 137 -10 165 8 19 11 44
69 53 120 4 27 10 51 13 53 2 2 22 -5 45 -16 68 -35 239 -95 431 -152 90 -27
213 -29 240 -4 26 24 53 117 45 155 -12 55 -105 132 -253 209 -75 39 -148 78
-162 86 -14 8 -50 26 -80 41 -30 14 -109 52 -175 84 -353 171 -437 210 -460
216 -41 10 -48 29 -10 30 43 1 63 18 86 72 32 75 25 114 -34 182 l-31 35 37 6
c47 7 122 70 138 114 8 20 20 35 29 35 8 0 44 -13 80 -29 207 -89 430 -184
530 -225 63 -26 140 -58 170 -71 150 -66 200 -85 223 -85 13 0 30 -6 36 -14 7
-8 41 -22 77 -32 36 -9 67 -21 70 -26 3 -4 16 -8 30 -8 l24 0 0 195 0 196
-167 80 c-93 45 -203 98 -246 120 -43 21 -87 39 -97 39 -10 0 -22 5 -26 11 -7
12 -229 120 -327 158 -66 27 -80 41 -40 41 84 0 134 124 83 208 -26 42 -25 45
8 28 36 -18 162 -46 210 -46 26 0 53 10 84 30 68 45 86 111 50 181 l-18 36 90
-23 c117 -30 194 -31 229 -4 30 24 63 116 54 151 -18 70 -175 182 -400 284
-55 26 -67 45 -26 45 23 0 76 51 90 87 12 33 11 90 -2 115 -10 19 -9 20 7 13
124 -54 408 -154 437 -155 4 0 7 80 7 179 l0 179 -49 21 c-27 11 -53 21 -57
21 -4 0 -15 7 -24 15 -32 29 -549 275 -578 275 -6 0 -12 3 -14 8 -3 8 -89 51
-207 103 l-74 33 42 14 c56 19 84 60 89 133 l4 57 53 -23 c29 -13 70 -27 91
-31 22 -3 48 -15 59 -25 12 -10 46 -27 76 -38 31 -10 64 -23 75 -29 30 -15 64
-29 129 -50 33 -12 92 -34 131 -50 38 -16 86 -33 105 -37 18 -4 44 -13 56 -21
12 -8 38 -14 58 -14 l35 0 0 171 0 170 -82 38 c-46 21 -95 43 -110 49 -39 16
-35 32 10 32 56 0 84 20 104 70 30 79 24 114 -27 169 -25 27 -72 63 -104 80
-33 17 -61 35 -63 40 -3 10 -248 134 -288 146 -14 4 -39 19 -56 32 -17 13 -53
31 -80 40 -27 9 -61 26 -76 39 -15 12 -44 28 -65 35 -21 6 -90 36 -153 66 -63
30 -152 70 -197 88 -129 53 -243 107 -243 115 0 4 14 13 30 20 51 21 90 74 90
124 0 50 7 61 29 43 9 -8 48 -25 86 -40 39 -14 106 -40 150 -57 400 -156 565
-193 632 -144 37 27 73 99 73 145 0 42 -36 93 -73 105 -12 3 -56 28 -97 54
-89 56 -217 121 -281 143 -26 9 -63 27 -84 41 -21 15 -42 26 -48 26 -6 0 -53
22 -106 49 -53 27 -161 77 -241 111 -80 34 -170 75 -200 90 -30 16 -82 40
-115 53 -33 14 -111 48 -174 76 -63 28 -124 53 -135 57 -19 5 -105 44 -256
117 l-55 26 53 0 c83 1 115 20 147 85 33 67 29 90 -23 148 -29 32 -77 60 -217
128 -99 48 -193 92 -210 98 -22 7 -8 8 57 4 l87 -5 35 35 c43 43 56 106 33
160 l-15 36 71 -25 c77 -26 176 -51 242 -60 90 -12 155 48 155 144 0 44 -5 58
-30 87 -17 18 -43 37 -58 41 -15 3 -36 15 -47 25 -23 21 -117 70 -135 70 -7 0
-24 8 -38 19 -15 10 -117 58 -227 106 -110 48 -234 102 -275 120 -41 18 -151
66 -245 106 -93 40 -201 87 -240 105 -38 18 -81 38 -95 44 -14 5 -41 20 -60
32 -69 42 -175 22 -202 -38 -9 -19 -17 -24 -32 -20 -56 14 -126 37 -171 55
-212 87 -349 140 -465 182 -74 27 -144 54 -155 59 -11 5 -63 25 -115 44 -52
18 -139 51 -192 72 -90 34 -98 40 -98 64 0 35 -37 89 -76 112 -39 23 -327 85
-589 128 -120 19 -232 38 -455 75 -149 26 -392 64 -505 80 -60 9 -146 22 -190
30 -138 24 -361 56 -371 54 -5 -1 -16 0 -24 4 -26 10 -145 27 -191 27 -24 1
-55 7 -69 15 -14 8 -45 15 -70 15 -25 0 -63 5 -85 11 -22 6 -114 23 -205 39
-278 48 -289 50 -339 70 -64 25 -118 12 -162 -38 -29 -33 -31 -39 -25 -88 3
-29 9 -59 12 -68 5 -14 -5 -16 -72 -15 -125 2 -128 3 -135 81 -6 69 -24 108
-62 132 -45 28 -288 76 -537 106 -91 11 -184 25 -208 30 -24 6 -76 15 -115 20
-40 5 -135 19 -212 30 -77 11 -165 23 -195 25 -30 3 -75 9 -100 14 -146 32
-229 41 -271 32 -48 -11 -84 -46 -97 -94 -4 -16 -11 -29 -15 -29 -9 -1 -92 7
-357 32 -1015 97 -1481 131 -1604 116 -38 -5 -66 -16 -86 -32 -28 -24 -31 -25
-90 -13 -33 6 -82 9 -108 6 -41 -5 -54 -2 -91 24 -24 16 -49 29 -54 29 -6 0
-39 11 -74 25 -34 14 -82 30 -105 35 -24 5 -122 30 -218 55 -96 26 -197 50
-225 54 -27 5 -122 29 -210 54 -171 48 -330 87 -358 87 -10 0 -32 7 -48 16
-27 14 -57 21 -159 38 -14 3 -38 12 -55 20 -41 21 -88 20 -135 -4 -43 -22 -60
-46 -60 -83 l0 -25 -52 14 c-29 7 -107 22 -173 34 -141 23 -246 44 -302 59
-22 6 -75 17 -119 25 -43 8 -194 37 -334 65 -294 58 -631 117 -775 136 -179
23 -228 25 -261 11z m-15182 -1729 c39 -18 154 -41 306 -61 51 -7 95 -16 99
-19 3 -4 -17 -16 -44 -28 -50 -20 -73 -48 -73 -88 0 -10 -6 -23 -12 -28 -7 -5
-88 -17 -179 -27 -91 -9 -176 -19 -190 -22 -13 -3 4 8 38 25 50 26 65 39 83
76 29 59 16 108 -42 160 -22 21 -37 36 -32 33 5 -2 26 -12 46 -21z"/>
</g>
</svg>
