<?xml version="1.0" standalone="no"?>
<!DOCTYPE svg PUBLIC "-//W3C//DTD SVG 20010904//EN"
 "http://www.w3.org/TR/2001/REC-SVG-20010904/DTD/svg10.dtd">
<svg version="1.0" xmlns="http://www.w3.org/2000/svg"
 width="483.000000pt" height="487.000000pt" viewBox="0 0 483.000000 487.000000"
 preserveAspectRatio="xMidYMid meet">
<metadata>
Created by potrace 1.16, written by Peter Selinger 2001-2019
</metadata>
<g transform="translate(0.000000,487.000000) scale(0.100000,-0.100000)" fill="black" stroke="none">
<path d="M2785 4810 c-49 -26 -103 -55 -120 -64 -16 -8 -37 -20 -45 -25 -16
-10 -202 -118 -235 -137 -11 -6 -51 -30 -90 -54 -38 -24 -86 -52 -105 -63 -19
-11 -48 -28 -65 -38 -16 -10 -47 -28 -67 -39 -20 -11 -39 -24 -43 -30 -3 -5
-11 -10 -17 -10 -6 0 14 19 45 43 69 52 86 84 62 121 -10 14 -26 26 -36 26
-26 0 -111 -42 -224 -111 -66 -40 -68 -39 -12 11 61 55 71 84 39 113 -21 20
-44 21 -75 7 -21 -10 -21 -10 1 7 142 110 160 132 147 173 -8 24 -49 36 -78
22 -12 -6 -29 -13 -37 -16 -8 -3 -33 -17 -55 -30 -22 -14 -67 -41 -100 -61
-33 -19 -78 -46 -100 -60 -22 -13 -67 -40 -100 -60 -33 -19 -78 -46 -100 -60
-22 -14 -56 -33 -76 -41 -46 -20 -68 -57 -51 -85 11 -17 6 -23 -45 -56 -32
-21 -60 -40 -63 -43 -3 -3 -30 -21 -60 -40 -30 -19 -57 -37 -60 -40 -5 -5
-104 -73 -139 -95 -9 -6 -36 -24 -60 -40 -24 -17 -51 -34 -60 -40 -9 -5 -18
-13 -21 -16 -3 -3 -30 -22 -60 -42 -162 -110 -195 -151 -150 -192 20 -18 23
-18 75 -1 30 9 57 21 60 27 4 5 21 16 38 24 18 8 48 25 67 37 19 11 44 26 55
32 21 12 60 36 110 68 l30 19 -30 -26 c-16 -15 -56 -49 -87 -76 -62 -54 -71
-80 -38 -107 20 -17 17 -20 -122 -112 -79 -52 -145 -97 -148 -100 -3 -3 -27
-21 -55 -40 -78 -53 -105 -82 -105 -111 0 -38 32 -63 72 -55 37 6 39 8 -53
-54 -29 -19 -70 -51 -92 -71 -33 -30 -39 -40 -33 -62 6 -27 37 -43 70 -38 17
2 17 1 5 -11 -8 -7 -22 -17 -30 -23 -74 -47 -109 -73 -136 -102 -38 -38 -36
-34 -23 -67 8 -22 16 -26 53 -26 27 0 62 10 97 29 67 34 130 70 150 83 8 6 -9
-11 -37 -37 -56 -50 -66 -80 -37 -109 22 -23 63 -20 119 8 l47 25 -41 -41
c-22 -23 -41 -48 -41 -57 0 -27 29 -60 56 -63 23 -3 21 -6 -31 -43 -115 -81
-142 -131 -87 -158 18 -10 37 -11 56 -6 43 12 43 5 -1 -22 -48 -30 -113 -93
-113 -111 0 -23 29 -56 53 -60 17 -2 1 -17 -80 -72 -57 -38 -103 -72 -103 -77
0 -5 -6 -9 -14 -9 -15 0 -46 -42 -46 -63 0 -7 10 -24 21 -36 29 -31 56 -25
193 44 114 57 128 63 108 43 -26 -26 -6 -77 37 -90 12 -3 -37 -41 -74 -57 -5
-2 -36 -21 -68 -43 -32 -21 -60 -38 -63 -38 -4 0 -79 -48 -99 -63 -5 -4 -32
-22 -60 -40 -132 -84 -168 -133 -128 -172 13 -13 27 -16 62 -11 44 6 216 84
255 116 19 15 19 14 1 -12 -12 -19 -15 -37 -10 -55 8 -32 21 -43 53 -43 23 0
23 0 -4 -25 -15 -14 -30 -25 -33 -25 -3 0 -16 -16 -29 -34 -19 -28 -21 -38
-12 -55 13 -25 50 -36 88 -26 26 6 26 5 -8 -19 -117 -86 -141 -123 -102 -159
25 -23 70 -21 110 3 48 29 60 24 23 -10 -30 -30 -35 -41 -31 -70 3 -19 30 -39
55 -40 37 0 143 46 295 129 8 4 26 14 39 20 13 7 39 21 57 32 19 10 50 28 70
40 l36 20 -6 -26 c-5 -19 -1 -31 17 -49 21 -21 22 -25 8 -30 -9 -3 -34 -16
-56 -30 -22 -14 -56 -35 -75 -46 -19 -11 -48 -29 -65 -40 -16 -11 -47 -30 -69
-42 -21 -13 -46 -28 -55 -33 -206 -132 -290 -196 -315 -237 -16 -26 -16 -29 0
-53 32 -49 58 -44 235 44 l76 38 -10 -28 c-14 -37 12 -69 56 -69 28 0 192 76
292 136 22 13 56 32 75 42 40 21 101 56 145 83 17 10 39 24 50 30 11 7 3 -4
-17 -23 -42 -39 -48 -66 -18 -93 19 -17 40 -17 100 0 16 5 5 -7 -32 -36 -52
-39 -57 -48 -58 -81 0 -32 4 -39 25 -44 14 -3 34 -4 45 -1 29 7 25 0 -11 -22
-18 -11 -56 -41 -85 -67 -65 -57 -71 -89 -23 -118 l31 -18 -31 -15 c-17 -9
-31 -19 -31 -24 0 -5 -4 -9 -9 -9 -12 0 -105 -61 -109 -72 -2 -4 -9 -8 -14 -8
-6 0 -18 -7 -27 -15 -9 -7 -31 -28 -50 -45 -25 -22 -34 -39 -34 -60 0 -40 7
-45 56 -44 45 1 162 60 387 194 8 5 44 25 80 45 60 33 63 34 33 8 -41 -36 -49
-67 -28 -100 15 -22 22 -25 54 -20 37 5 226 91 237 108 3 5 10 9 15 9 6 0 3
-13 -7 -28 -15 -27 -15 -31 1 -55 20 -31 47 -34 97 -13 18 8 44 19 58 25 37
15 174 91 184 102 6 5 14 9 19 9 5 0 -5 -12 -22 -27 -58 -51 -31 -112 45 -100
42 7 43 -3 4 -27 -44 -25 -110 -90 -110 -108 0 -20 37 -58 57 -58 18 0 259
125 286 148 9 8 19 13 22 10 3 -2 -15 -22 -40 -44 -25 -21 -45 -47 -45 -57 0
-30 19 -57 41 -57 29 0 17 -13 -61 -65 -99 -67 -150 -117 -150 -147 0 -26 27
-58 50 -58 14 0 141 63 215 106 22 13 58 33 80 45 22 12 42 24 45 28 3 3 25
17 50 30 25 13 52 30 60 36 18 15 76 45 86 45 5 0 -20 -18 -54 -40 -34 -22
-62 -45 -62 -50 0 -5 -9 -11 -19 -15 -24 -7 -36 -56 -21 -84 6 -12 21 -21 34
-21 25 0 106 35 171 75 22 13 49 29 60 34 11 6 38 22 60 36 22 13 57 35 79 47
21 13 46 28 55 33 9 6 57 35 106 65 50 30 97 60 106 65 9 6 34 20 55 33 91 53
220 132 229 140 6 4 24 15 40 24 17 8 86 48 155 87 69 40 132 76 140 80 41 22
8 97 -38 88 -26 -5 -18 7 16 27 92 53 212 155 212 182 0 8 -9 23 -20 34 l-21
21 23 19 c13 11 26 19 30 20 4 0 34 18 67 40 33 22 63 40 66 40 3 0 18 8 33
19 39 27 144 94 165 106 147 83 337 227 337 256 0 38 -19 59 -53 60 -30 0 -31
1 -9 11 12 6 22 15 22 20 0 4 5 8 11 8 11 0 76 48 127 94 33 31 39 54 22 87
-18 33 -65 23 -189 -42 l-116 -60 43 41 c47 45 52 66 22 98 -26 27 -40 27 -92
2 -59 -28 -65 -25 -22 14 41 38 49 80 18 103 -26 19 -38 17 -117 -22 -71 -34
-69 -29 13 30 45 33 58 64 41 101 -12 26 -54 33 -94 14 -22 -11 -22 -11 -2 5
11 9 50 38 87 66 76 55 92 87 62 120 -24 27 -63 21 -146 -20 -34 -17 -63 -31
-65 -31 -2 0 12 14 32 31 45 40 48 82 8 102 -16 8 -35 12 -43 10 -8 -3 15 14
53 37 37 24 67 46 67 51 0 5 5 9 11 9 16 0 127 88 139 110 14 27 13 37 -10 60
-27 27 -57 25 -135 -10 l-66 -30 20 26 c12 15 21 34 21 44 0 22 -31 50 -55 50
-21 0 -12 13 22 34 62 37 93 59 93 67 0 5 6 9 13 9 20 0 97 81 97 101 0 21
-37 59 -57 59 -8 0 -30 -7 -51 -16 l-37 -15 38 38 c20 22 37 48 37 59 0 29
-31 54 -65 54 l-29 0 42 42 c23 22 42 48 42 57 0 27 -29 61 -52 61 -20 0 -20
1 3 18 13 9 32 22 40 27 101 62 209 155 209 179 0 6 -7 22 -16 34 -24 35 -69
28 -175 -26 -163 -84 -387 -210 -395 -223 -3 -5 -9 -9 -14 -9 -5 0 -2 13 8 29
38 67 -23 114 -100 76 l-33 -17 28 26 c33 33 38 89 8 108 -18 11 -11 17 70 67
50 31 102 64 117 73 15 10 40 25 55 33 16 9 65 41 109 71 44 30 82 54 85 54
13 0 142 113 148 129 3 10 1 30 -4 45 -16 42 -65 35 -185 -25 -107 -53 -224
-117 -247 -134 -8 -6 -39 -24 -69 -39 -30 -16 -62 -35 -71 -42 -8 -8 -20 -14
-26 -14 -6 0 -23 -10 -39 -22 l-29 -23 28 33 c32 40 34 55 6 83 -16 16 -29 20
-57 15 l-37 -6 25 17 c97 69 123 119 80 158 -17 16 -26 17 -58 7 -36 -11 -37
-11 -14 6 54 38 112 100 112 118 -1 53 -61 70 -129 36 -20 -10 -64 -33 -97
-50 -74 -39 -81 -39 -56 -7 20 25 20 59 -1 72 -6 3 -23 9 -39 12 -27 6 -25 8
54 60 77 50 158 122 158 140 0 5 -10 21 -21 36 -18 22 -27 26 -52 21 -32 -7
-213 -95 -277 -136 -8 -5 -55 -32 -105 -60 -104 -59 -120 -68 -158 -94 -37
-24 -44 -15 -12 15 13 13 25 34 25 46 0 26 -42 58 -65 49 -8 -3 -15 -4 -15 -2
0 4 86 60 125 81 27 15 79 48 85 55 4 4 47 34 138 95 66 45 84 107 36 125 -14
6 -37 7 -52 4 -25 -6 -126 -57 -212 -107 l-35 -20 43 42 c46 46 49 56 26 89
-28 41 -69 30 -259 -71 -38 -21 -77 -42 -85 -47 -13 -8 -212 -122 -300 -172
-19 -11 -41 -25 -47 -30 -23 -18 -14 0 12 26 14 14 25 32 25 41 0 29 -20 55
-42 55 -17 0 -18 2 -8 15 7 8 18 15 24 16 6 0 31 16 56 35 25 18 54 38 65 43
41 19 160 117 175 144 13 24 13 30 0 55 -23 40 -53 36 -155 -18z"/>
</g>
</svg>
