<?xml version="1.0" standalone="no"?>
<!DOCTYPE svg PUBLIC "-//W3C//DTD SVG 20010904//EN"
 "http://www.w3.org/TR/2001/REC-SVG-20010904/DTD/svg10.dtd">
<svg version="1.0" xmlns="http://www.w3.org/2000/svg"
 width="1849.000000pt" height="540.000000pt" viewBox="0 0 1849.000000 540.000000"
 preserveAspectRatio="xMidYMid meet">
<metadata>
Created by potrace 1.16, written by Peter Selinger 2001-2019
</metadata>
<g transform="translate(0.000000,540.000000) scale(0.100000,-0.100000)"
fill="black" stroke="none">
<path d="M2333 5171 c-3 -11 -10 -21 -17 -21 -6 -1 -160 0 -341 0 -364 1 -381
-2 -358 -53 13 -27 33 -33 148 -42 39 -3 90 -9 115 -12 l45 -6 -65 -11 c-61
-10 -65 -13 -70 -41 l-5 -30 -201 0 c-156 0 -205 -3 -217 -14 -23 -18 -21 -48
3 -63 11 -7 20 -16 20 -20 0 -5 -42 -8 -94 -8 -74 0 -96 -3 -107 -16 -11 -13
-11 -21 3 -44 l16 -28 -90 -4 c-74 -2 -92 -6 -103 -22 -10 -13 -11 -24 -5 -37
12 -22 31 -28 110 -37 58 -7 82 -24 41 -30 -58 -9 -50 -66 12 -83 l42 -12 -38
-15 c-28 -11 -37 -20 -37 -38 0 -12 5 -26 10 -29 24 -15 5 -23 -65 -27 -59 -4
-80 -10 -94 -25 -19 -20 -18 -20 9 -43 16 -13 27 -27 25 -30 -2 -4 -27 -7 -55
-8 -29 0 -58 -6 -66 -13 -16 -13 -19 -45 -4 -54 29 -18 0 -25 -104 -25 -63 0
-121 -3 -130 -6 -22 -8 -21 -61 1 -72 10 -5 56 -15 103 -21 111 -16 120 -19
97 -32 -11 -7 -17 -22 -17 -46 l0 -35 -108 7 c-144 9 -346 10 -360 1 -7 -4
-12 -20 -12 -35 0 -35 26 -48 129 -62 107 -16 107 -16 87 -37 -20 -23 -20 -41
0 -63 15 -17 13 -18 -23 -24 -59 -10 -83 -23 -83 -45 0 -11 9 -25 20 -32 31
-20 24 -25 -40 -30 -72 -5 -98 -24 -81 -57 7 -13 29 -25 57 -32 47 -12 48 -25
4 -31 -21 -2 -25 -8 -25 -37 0 -33 2 -35 50 -48 28 -7 113 -19 190 -28 176
-19 190 -22 177 -38 -6 -7 -12 -23 -14 -37 -2 -21 -8 -25 -33 -23 -16 1 -145
5 -285 9 -278 8 -300 5 -300 -42 0 -31 35 -47 142 -64 43 -7 78 -17 78 -21 0
-5 -4 -9 -9 -9 -15 0 -22 -30 -11 -49 12 -24 69 -38 214 -53 64 -7 116 -15
116 -18 0 -4 26 -4 59 -2 32 2 67 0 77 -6 17 -9 16 -11 -9 -17 -15 -4 -27 -10
-27 -14 0 -4 -12 -13 -26 -20 -23 -10 -25 -16 -20 -45 l6 -33 -115 -5 c-87 -3
-119 -8 -131 -20 -27 -26 -9 -57 41 -70 24 -7 46 -19 48 -27 3 -9 8 -24 12
-33 7 -17 -3 -18 -126 -18 -117 0 -138 -3 -164 -20 -16 -11 -44 -20 -61 -20
-37 0 -58 -21 -49 -49 7 -23 67 -44 180 -61 38 -6 71 -13 73 -15 2 -2 -6 -8
-17 -15 -25 -13 -29 -58 -6 -66 27 -11 16 -24 -19 -24 -77 0 -113 -36 -76 -75
11 -12 20 -24 20 -28 0 -4 -23 -7 -51 -7 -63 0 -89 -13 -89 -46 0 -25 17 -37
72 -48 32 -7 38 -26 9 -26 -37 0 -51 -12 -51 -41 0 -21 6 -32 22 -39 32 -13
173 -37 306 -51 104 -11 127 -18 102 -34 -5 -3 -10 -18 -10 -32 l0 -26 -138 7
c-75 4 -212 8 -304 8 -174 1 -198 -4 -198 -42 0 -32 35 -49 135 -66 55 -10
101 -19 103 -20 2 -1 -6 -12 -17 -23 -56 -56 30 -84 329 -107 52 -5 100 -9
105 -9 6 -1 18 -3 28 -3 25 -3 21 -20 -5 -24 -17 -2 -24 -11 -26 -31 -3 -23 2
-30 35 -44 l38 -17 -51 -7 c-29 -3 -57 -10 -63 -13 -14 -9 -14 -53 -1 -61 24
-15 6 -25 -47 -25 -78 0 -108 -16 -108 -58 l0 -33 -136 -2 c-137 -2 -169 -10
-169 -43 0 -26 30 -41 111 -52 91 -13 313 -35 341 -34 10 0 20 -3 23 -9 4 -5
-1 -9 -9 -9 -33 0 -66 -23 -66 -46 0 -33 38 -49 148 -64 50 -7 92 -16 92 -19
0 -3 -9 -12 -20 -19 -21 -13 -27 -47 -9 -57 18 -12 123 -34 193 -41 64 -7 103
-24 53 -24 -56 0 -59 -59 -4 -81 31 -12 30 -13 -42 -19 -76 -7 -106 -25 -94
-56 9 -23 33 -32 123 -43 134 -17 151 -21 144 -32 -3 -6 -12 -8 -20 -5 -7 3
-28 0 -45 -6 -28 -10 -31 -14 -26 -44 3 -19 3 -34 -1 -34 -90 -1 -208 -13
-219 -22 -8 -6 -13 -23 -11 -37 3 -24 8 -27 83 -37 44 -7 125 -15 180 -18 136
-9 186 -17 179 -27 -3 -5 -27 -9 -54 -9 -26 0 -55 -3 -64 -6 -20 -8 -21 -60
-2 -67 40 -16 316 -40 601 -53 72 -3 132 -7 135 -9 3 -2 66 -6 140 -10 74 -3
164 -10 198 -15 35 -5 70 -6 78 -3 16 6 19 49 4 58 -27 17 0 24 104 27 63 1
118 7 122 11 5 4 8 20 9 35 l0 27 95 -4 c65 -2 102 -9 119 -20 25 -16 23 -16
-57 -21 -59 -4 -86 -9 -92 -20 -29 -45 2 -56 303 -105 152 -24 283 -42 291
-39 7 3 16 14 19 25 4 16 12 18 44 15 21 -3 88 -10 148 -16 61 -6 167 -18 237
-26 166 -18 292 -19 307 0 16 19 3 46 -28 58 -14 5 -86 20 -160 33 -74 14
-137 27 -140 31 -3 4 52 4 124 0 71 -3 131 -10 133 -16 2 -5 34 -7 81 -3 l79
6 13 -29 c19 -38 39 -41 284 -38 l200 3 -70 -15 c-78 -18 -95 -28 -95 -55 0
-38 31 -42 294 -35 138 3 325 11 416 16 259 15 376 13 405 -6 22 -14 54 -16
268 -11 133 4 339 11 457 17 242 13 445 10 445 -5 0 -5 -31 -13 -70 -17 -49
-5 -73 -12 -82 -24 -17 -23 -16 -29 3 -48 16 -16 47 -19 219 -21 44 -1 143 -3
220 -4 77 -1 146 -2 153 -2 7 1 17 12 22 26 9 23 15 25 67 26 138 1 379 10
508 19 123 7 142 11 156 29 15 18 28 21 106 21 54 0 94 -5 101 -12 6 -6 25
-11 42 -10 17 0 28 -3 25 -8 -3 -4 12 -4 33 1 51 12 115 11 107 -1 -8 -13 49
-13 73 -1 9 5 139 15 289 21 220 9 276 9 292 -2 12 -7 21 -15 21 -18 0 -3 -30
-11 -66 -17 -76 -13 -89 -22 -80 -56 l6 -24 352 -6 c194 -4 393 -4 441 0 80 6
90 8 100 30 8 19 18 23 51 23 23 0 58 3 79 6 32 6 37 4 37 -13 0 -44 14 -46
311 -39 155 3 285 9 290 12 5 3 9 12 9 19 0 24 30 32 165 44 72 6 207 19 302
28 182 17 213 15 488 -32 44 -8 96 -16 115 -19 146 -20 408 -60 470 -72 41 -8
80 -14 86 -14 17 0 25 29 14 49 -5 10 -7 20 -5 23 2 2 42 1 88 -3 109 -10 141
-2 145 35 l4 28 61 -6 c126 -14 353 -48 367 -57 11 -6 5 -8 -18 -9 -62 0 -94
-39 -58 -69 20 -17 343 -45 521 -46 51 0 61 3 69 20 8 20 16 20 336 17 331 -3
374 1 387 34 11 30 -23 46 -119 59 -122 15 -88 22 142 30 96 3 239 8 318 11
127 6 144 5 162 -11 17 -16 41 -17 216 -16 108 1 200 3 203 5 3 2 92 7 196 10
105 3 253 9 331 12 140 7 239 0 229 -15 -2 -5 -34 -11 -70 -13 -69 -6 -95 -19
-95 -48 0 -34 25 -40 191 -45 90 -3 219 -7 287 -9 86 -3 126 -1 133 7 5 7 15
20 22 29 10 14 46 17 277 23 256 6 306 8 397 21 50 6 70 31 49 60 -12 16 -38
20 -177 30 -90 6 -162 12 -159 13 3 1 28 5 55 8 73 7 100 23 98 56 -2 26 0 27
50 27 90 1 352 19 370 26 10 3 22 15 28 25 8 15 5 24 -15 43 -14 12 -23 26
-19 29 3 4 39 7 79 7 113 0 150 24 108 71 -15 17 -15 18 7 23 13 3 55 7 92 10
75 5 100 18 95 50 -4 26 -54 45 -125 45 -60 1 -76 15 -33 30 22 7 30 16 30 34
0 31 -15 43 -65 53 l-40 7 43 18 c45 19 55 46 27 69 -29 24 -16 32 45 28 33
-2 60 -1 60 4 0 4 8 8 19 8 24 0 44 24 39 47 -2 10 -17 24 -33 33 l-30 14 52
7 c29 4 64 10 77 13 33 8 43 42 20 67 -17 19 -17 20 12 18 52 -2 188 12 217
23 22 9 27 16 25 37 -4 36 -39 50 -147 58 -50 3 -91 9 -91 13 0 4 7 13 16 21
10 8 14 22 10 40 l-5 26 222 6 c122 2 234 10 250 16 34 13 38 55 6 72 -12 6
-68 16 -125 22 -98 10 -124 20 -89 33 20 8 19 48 0 64 -19 16 -4 30 32 30 69
0 99 56 46 84 l-28 14 40 6 c104 16 110 19 110 51 0 33 -30 55 -78 55 -35 0
-27 16 13 25 31 7 45 31 34 58 -10 26 -76 39 -264 51 -147 9 -174 13 -171 26
2 8 5 26 6 40 2 30 -16 29 330 32 281 3 305 8 305 54 0 33 -45 52 -142 60 -94
7 -109 12 -85 25 20 12 23 52 4 67 -18 16 -158 31 -344 39 -155 6 -189 13
-123 26 23 5 30 12 30 31 0 27 -13 39 -55 53 -29 9 -29 10 18 16 27 4 61 13
75 20 15 8 41 20 57 28 21 10 31 23 33 42 2 18 9 27 21 27 29 0 44 25 36 60
l-7 30 94 1 c120 0 188 12 204 34 16 21 2 55 -22 55 -8 0 -39 11 -67 25 -35
16 -79 26 -135 31 -45 4 -85 10 -87 14 -2 4 4 16 14 26 18 19 18 20 -6 45
l-24 27 44 6 c61 9 82 26 73 59 -3 15 -13 27 -21 27 -8 0 -15 5 -15 10 0 6 15
10 33 10 17 0 49 5 70 11 30 8 37 15 37 34 0 29 -34 55 -72 55 -37 0 -36 17 1
25 57 12 46 68 -17 84 -43 11 -256 31 -331 31 -47 0 -65 10 -41 25 6 3 10 18
10 33 l0 27 278 1 c309 1 332 5 332 54 0 37 -16 45 -110 54 -105 11 -126 17
-107 28 20 11 22 51 3 67 -7 6 -41 14 -75 17 -33 4 -61 11 -61 15 0 5 -26 6
-59 3 -39 -4 -61 -3 -65 5 -4 6 -18 11 -32 11 -17 0 -23 -4 -18 -12 5 -8 2 -9
-10 -5 -10 4 -52 7 -94 8 -74 1 -76 1 -46 14 17 8 34 20 37 28 8 21 -20 57
-44 57 -10 0 -19 5 -19 10 0 6 16 10 36 10 65 0 96 37 59 73 -20 20 -9 27 44
28 82 2 96 10 97 54 l0 40 130 6 c71 3 137 9 147 13 21 10 22 49 1 67 -10 8
-72 16 -187 21 -95 5 -192 12 -217 15 l-45 6 32 9 c51 13 56 72 7 84 -13 3
-24 10 -24 16 0 5 -9 7 -20 3 -11 -3 -51 -3 -90 1 -70 7 -71 7 -50 26 36 34
22 65 -36 78 -21 5 -79 12 -127 15 l-88 7 30 19 c17 10 31 23 31 29 0 16 -38
50 -57 51 -31 2 29 17 70 18 49 1 77 16 77 41 0 32 -39 50 -110 51 -36 1 -90
4 -120 8 l-55 7 40 8 c57 12 68 23 60 63 l-6 33 78 1 c43 0 94 5 113 12 29 10
35 17 35 41 0 40 -20 44 -250 52 -104 3 -192 7 -193 9 -2 2 18 6 45 10 72 9
93 21 93 49 0 33 -26 46 -94 46 -31 0 -56 5 -56 10 0 7 -70 8 -203 3 -150 -4
-206 -3 -211 5 -4 7 -33 12 -67 12 -38 0 -58 -4 -54 -10 4 -7 -56 -8 -182 -3
-286 12 -277 12 -281 -15 -2 -13 1 -29 7 -36 16 -20 -29 -26 -168 -25 -101 1
-110 3 -71 11 74 16 90 25 90 52 0 16 -8 30 -22 37 -21 12 -17 14 45 25 95 18
118 41 80 80 -15 15 -35 16 -192 10 -366 -13 -391 -16 -401 -41 -10 -25 -17
-27 -225 -45 -66 -6 -161 -15 -212 -20 -115 -12 -183 -13 -183 -1 0 5 24 12
53 16 77 11 97 21 97 49 0 48 -8 49 -307 37 -273 -11 -303 -16 -303 -47 0 -8
-4 -14 -9 -14 -4 0 -73 -6 -152 -14 -332 -33 -399 -38 -413 -33 -8 3 -18 2
-21 -3 -7 -12 -65 -14 -65 -2 0 4 -24 8 -53 9 -28 1 -155 18 -282 37 -126 20
-302 48 -390 62 -88 13 -175 29 -193 35 -43 14 -66 -3 -58 -43 5 -27 4 -28
-33 -28 -21 0 -41 3 -45 8 -4 4 -33 7 -64 7 -64 0 -92 -16 -92 -52 0 -13 -6
-23 -12 -23 -20 0 -380 51 -408 57 -20 5 -16 8 24 14 62 10 78 29 52 64 -9 13
-30 20 -70 23 -31 2 -56 7 -56 11 0 3 -35 6 -77 6 -43 0 -147 4 -230 9 l-153
9 -8 -23 -9 -23 -336 2 c-348 2 -377 -1 -377 -38 0 -31 26 -43 122 -55 l93
-12 -80 -7 c-44 -4 -202 -10 -352 -14 -220 -5 -275 -4 -288 7 -12 10 -46 13
-116 13 -58 -1 -97 2 -94 8 4 5 -10 9 -29 9 -20 0 -36 -4 -36 -8 0 -5 -126
-14 -280 -20 -263 -12 -282 -11 -307 5 l-27 18 68 12 c94 17 118 41 79 75 -16
13 -77 15 -433 13 -228 -1 -425 -5 -436 -9 -12 -4 -24 -16 -27 -26 -4 -16 -14
-20 -49 -20 -23 0 -60 -3 -80 -6 -36 -6 -38 -5 -38 18 0 48 -13 50 -237 43
-114 -3 -223 -8 -241 -11 -23 -4 -32 -2 -27 5 4 7 -7 11 -30 11 -22 0 -34 -4
-30 -10 3 -5 -3 -10 -15 -10 -13 0 -24 -9 -30 -26 -7 -18 -16 -25 -33 -23 -12
1 -29 -1 -37 -4 -8 -3 -76 -11 -150 -17 -74 -6 -198 -18 -274 -25 -130 -13
-149 -13 -274 6 -75 10 -137 21 -140 23 -2 2 3 14 10 25 10 16 10 25 2 39 -10
16 -33 17 -265 14 -239 -3 -376 7 -439 32 -9 4 -24 0 -35 -8 -17 -12 -18 -17
-7 -40 11 -26 11 -26 -27 -26 -21 0 -41 3 -45 7 -12 13 -130 9 -143 -4 -7 -6
-13 -21 -13 -32 0 -19 -6 -21 -63 -21 -71 0 -88 8 -55 24 29 15 34 39 12 61
-14 14 -33 16 -121 13 -93 -3 -104 -1 -109 15 -8 25 -36 34 -139 42 -50 3
-101 12 -114 18 -16 8 -25 8 -28 2 -2 -6 -35 -8 -91 -3 -48 3 -120 7 -160 7
-69 1 -73 0 -82 -24 -6 -16 -17 -25 -30 -25 -12 0 -19 3 -17 8 3 4 -143 5
-323 2 -354 -5 -364 -7 -342 -54 13 -28 26 -32 186 -46 66 -6 121 -12 123 -14
1 -1 -39 -8 -90 -15 -99 -14 -72 -17 -602 68 -66 11 -140 23 -165 26 -25 4
-60 11 -79 17 -27 8 -36 7 -49 -6 -13 -13 -13 -20 -4 -41 l12 -27 -98 7 c-116
9 -142 3 -142 -30 0 -13 -5 -27 -10 -30 -6 -4 -72 3 -148 14 -75 11 -164 23
-197 27 -67 7 -109 23 -63 24 15 0 38 4 52 10 34 13 36 57 4 69 -30 11 -233
29 -426 37 -151 7 -153 7 -159 -15z"/>
</g>
</svg>
