<?xml version="1.0" standalone="no"?>
<!DOCTYPE svg PUBLIC "-//W3C//DTD SVG 20010904//EN""http://www.w3.org/TR/2001/REC-SVG-20010904/DTD/svg10.dtd">
<svg viewBox="0 0 1440 320" class="skill_top_svg , main_color_svg" ><path d="M0,224L48,208C96,192,192,160,288,165.3C384,171,480,213,576,224C672,235,768,213,864,197.3C960,181,1056,171,1152,165.3C1248,160,1344,160,1392,160L1440,160L1440,320L1392,320C1344,320,1248,320,1152,320C1056,320,960,320,864,320C768,320,672,320,576,320C480,320,384,320,288,320C192,320,96,320,48,320L0,320Z"></path></svg>