<?xml version="1.0" standalone="no"?>
<!DOCTYPE svg PUBLIC "-//W3C//DTD SVG 20010904//EN""http://www.w3.org/TR/2001/REC-SVG-20010904/DTD/svg10.dtd">
<svg viewBox="0 0 1440 160"> <path d="M0,16L40,32C80,48,160,80,240,77.3C320,75,400,37,480,37.3C560,37,640,75,720,77.3C800,80,880,48,960,40C1040,32,1120,48,1200,53.3C1280,59,1360,53,1440,45.3C1520,37,1600,27,1680,29.3C1760,32,1840,48,1920,66.7C2000,85,2080,107,2160,106.7C2240,107,2320,85,2400,66.7C2480,48,2560,32,2640,37.3C2720,43,2800,69,2880,66.7C2960,64,3040,32,3120,26.7C3200,21,3280,43,3360,64C3440,85,3520,107,3600,98.7C3680,91,3760,53,3840,34.7C3920,16,4000,16,4080,18.7C4160,21,4240,27,4320,42.7C4400,59,4480,85,4560,82.7C4640,80,4720,48,4800,34.7C4880,21,4960,27,5040,29.3C5120,32,5200,32,5280,42.7C5360,53,5440,75,5520,74.7C5600,75,5680,53,5720,42.7L5760,32L5760,160L5720,160C5680,160,5600,160,5520,160C5440,160,5360,160,5280,160C5200,160,5120,160,5040,160C4960,160,4880,160,4800,160C4720,160,4640,160,4560,160C4480,160,4400,160,4320,160C4240,160,4160,160,4080,160C4000,160,3920,160,3840,160C3760,160,3680,160,3600,160C3520,160,3440,160,3360,160C3280,160,3200,160,3120,160C3040,160,2960,160,2880,160C2800,160,2720,160,2640,160C2560,160,2480,160,2400,160C2320,160,2240,160,2160,160C2080,160,2000,160,1920,160C1840,160,1760,160,1680,160C1600,160,1520,160,1440,160C1360,160,1280,160,1200,160C1120,160,1040,160,960,160C880,160,800,160,720,160C640,160,560,160,480,160C400,160,320,160,240,160C160,160,80,160,40,160L0,160Z"/></svg>